<svg xmlns="http://www.w3.org/2000/svg" viewBox="0 0 200.59 84.65"><defs><style>.cls-1{fill:#fff;}</style></defs><title>logo-1</title><g id="LOGO"><polygon class="cls-1" points="29.66 12.18 38.08 12.18 43.14 0 34.73 0 29.66 12.18"/><polygon class="cls-1" points="0 83.62 8.41 83.62 33.85 22.37 25.43 22.37 0 83.62"/><path class="cls-1" d="M130.9,22.12a21.22,21.22,0,0,0-13-4.28q-11,0-17.89,9.1T93.13,52.11a44,44,0,0,0,3,16.12,27.12,27.12,0,0,0,8.73,12,21,21,0,0,0,13.09,4.4,21.87,21.87,0,0,0,12.59-4,25.48,25.48,0,0,0,9-11.74,45.94,45.94,0,0,0,3.17-17.57,46.69,46.69,0,0,0-3-17.33,26.55,26.55,0,0,0-8.78-11.91m-.27,48.44q-5,6.78-12.75,6.78-7.59,0-12.64-6.71t-5-18.39q0-14.58,5.26-20.81T118,25.2a14.59,14.59,0,0,1,9.25,3.24,20,20,0,0,1,6.26,9.11,40.38,40.38,0,0,1,2.13,13.76q0,12.46-5,19.25"/><path class="cls-1" d="M197.56,34a26.48,26.48,0,0,0-8.78-11.91,21.22,21.22,0,0,0-12.94-4.28q-11,0-17.89,9.1T151,52.11a43.77,43.77,0,0,0,3,16.12,27,27,0,0,0,8.73,12,20.94,20.94,0,0,0,13.08,4.4,21.87,21.87,0,0,0,12.59-4,25.33,25.33,0,0,0,9-11.74,45.74,45.74,0,0,0,3.19-17.57,46.69,46.69,0,0,0-3-17.33m-9.05,36.53q-5,6.78-12.74,6.78t-12.64-6.71q-5-6.72-5-18.39,0-14.58,5.25-20.81t12.53-6.23a14.59,14.59,0,0,1,9.25,3.24,20,20,0,0,1,6.26,9.11,40.37,40.37,0,0,1,2.14,13.76q0,12.46-5,19.25"/><path class="cls-1" d="M71.55,54q6.56-1.42,9.82-5.78A18.78,18.78,0,0,0,84.89,36.6a22.06,22.06,0,0,0-2.12-9.73,12.61,12.61,0,0,0-5.69-6.14Q73.52,19,66.69,19H44V83.55h6.77V54.88h7.84a15.93,15.93,0,0,1,3.77.31,9.44,9.44,0,0,1,3.09,1.71,18.21,18.21,0,0,1,3.43,4.32c1.28,2.06,3.21,4.88,5.19,8.75l7.28,13.58H89.9S78.16,62,76.81,60a22.91,22.91,0,0,0-5.26-6m-6.22-6.49H50.79V26.12H67q5.69,0,8.31,3a10.83,10.83,0,0,1,2.63,7.52,12.66,12.66,0,0,1-1.35,5.8,8.35,8.35,0,0,1-4,3.87,17.57,17.57,0,0,1-7.25,1.21"/></g></svg>